<svg width="24" height="24" viewBox="0 0 24 24" fill="none" xmlns="http://www.w3.org/2000/svg">
<path d="M12 4C7.58974 4 4 7.58974 4 12C4 16.4103 7.58974 20 12 20C16.4103 20 20 16.4103 20 12C20 7.58974 16.4103 4 12 4ZM12 18.7692C8.26667 18.7692 5.23077 15.7333 5.23077 12C5.23077 8.26667 8.26667 5.23077 12 5.23077C15.7333 5.23077 18.7692 8.26667 18.7692 12C18.7692 15.7333 15.7333 18.7692 12 18.7692Z" fill="#DADADA"/>
<path d="M14.8922 9.10762C14.6563 8.87172 14.2666 8.87172 14.0204 9.10762L11.9999 11.1281L9.96913 9.10762C9.73323 8.87172 9.34349 8.87172 9.09733 9.10762C8.86144 9.34352 8.86144 9.73326 9.09733 9.97941L11.1281 11.9999L9.09733 14.0307C8.86144 14.2666 8.86144 14.6563 9.09733 14.9025C9.22041 15.0256 9.37426 15.0871 9.5281 15.0871C9.68195 15.0871 9.84605 15.0256 9.95887 14.9025L11.9999 12.8717L14.0307 14.9025C14.1537 15.0256 14.3076 15.0871 14.4614 15.0871C14.6153 15.0871 14.7794 15.0256 14.8922 14.9025C15.1281 14.6666 15.1281 14.2768 14.8922 14.0307L12.8717 11.9999L14.9025 9.96916C15.1384 9.73326 15.1384 9.34352 14.8922 9.10762Z" fill="#DADADA"/>
</svg>
