<svg width="24" height="24" viewBox="0 0 24 24" fill="none" xmlns="http://www.w3.org/2000/svg">
<path d="M14.9641 9.71275L10.8718 13.6102L9.0359 11.8666C8.78975 11.6307 8.4 11.641 8.16411 11.8871C7.92821 12.1333 7.93846 12.523 8.18462 12.7589L10.441 14.9128C10.5641 15.0256 10.718 15.0871 10.8615 15.0871C11.0154 15.0871 11.1692 15.0256 11.2821 14.9128L15.7949 10.6051C16.041 10.3692 16.0513 9.97942 15.8154 9.73326C15.6 9.48711 15.2103 9.47685 14.9641 9.71275Z" fill="#5459E8"/>
<path d="M12 4C7.58974 4 4 7.58974 4 12C4 16.4103 7.58974 20 12 20C16.4103 20 20 16.4103 20 12C20 7.58974 16.4103 4 12 4ZM12 18.7692C8.26667 18.7692 5.23077 15.7333 5.23077 12C5.23077 8.26667 8.26667 5.23077 12 5.23077C15.7333 5.23077 18.7692 8.26667 18.7692 12C18.7692 15.7333 15.7333 18.7692 12 18.7692Z" fill="#5459E8"/>
</svg>
