<svg width="16" height="16" viewBox="0 0 16 16" fill="none" xmlns="http://www.w3.org/2000/svg">
<path d="M10.9641 5.71275L6.8718 9.61019L5.0359 7.8666C4.78975 7.6307 4.4 7.64096 4.16411 7.88711C3.92821 8.13326 3.93846 8.52301 4.18462 8.75891L6.44103 10.9128C6.56411 11.0256 6.71795 11.0871 6.86154 11.0871C7.01539 11.0871 7.16923 11.0256 7.28205 10.9128L11.7949 6.60506C12.041 6.36916 12.0513 5.97942 11.8154 5.73326C11.6 5.48711 11.2103 5.47685 10.9641 5.71275Z" fill="#5459E8"/>
<path d="M8 0C3.58974 0 0 3.58974 0 8C0 12.4103 3.58974 16 8 16C12.4103 16 16 12.4103 16 8C16 3.58974 12.4103 0 8 0ZM8 14.7692C4.26667 14.7692 1.23077 11.7333 1.23077 8C1.23077 4.26667 4.26667 1.23077 8 1.23077C11.7333 1.23077 14.7692 4.26667 14.7692 8C14.7692 11.7333 11.7333 14.7692 8 14.7692Z" fill="#5459E8"/>
</svg>
